<svg data-v-0dd9719b="" version="1.0" xmlns="http://www.w3.org/2000/svg" xmlns:xlink="http://www.w3.org/1999/xlink" width="100%" height="100%" viewBox="0 0 340.000000 250.000000" preserveAspectRatio="xMidYMid meet" color-interpolation-filters="sRGB" style="margin: auto;"> <rect data-v-0dd9719b="" x="0" y="0" width="100%" height="100%" fill="#ffffff" fill-opacity="1" class="background"></rect> <rect data-v-0dd9719b="" x="0" y="0" width="100%" height="100%" fill="url(#watermark)" fill-opacity="1" class="watermarklayer"></rect> <g data-v-0dd9719b="" fill="#333" class="icon-text-wrapper icon-svg-group iconsvg" transform="translate(45.69999694824219,94.74406051635742)"><g class="iconsvg-imagesvg" transform="translate(0,0)"><g><rect fill="#333" fill-opacity="0" stroke-width="2" x="0" y="0" width="60" height="60" class="image-rect"></rect> <svg x="0" y="0" width="60" height="60" filtersec="colorsb7174960126" class="image-svg-svg primary" style="overflow: visible;"><svg xmlns="http://www.w3.org/2000/svg" viewBox="0 0 288 288"><title>资源 23</title><path fill="none" d="M0 0h288v288H0z"></path><path fill="#ff5000" d="M144 0h144v144H144z"></path><path fill="#ffc81a" d="M0 144h144v144H0z"></path><path fill="#4286f5" d="M240 144h24v144h-24zM192 144h24v144h-24zM144 144h24v144h-24z"></path><path d="M0 0v144h144V0zm36 120a6 6 0 1 1 6-6 6 6 0 0 1-6 6zm0-42a6 6 0 1 1 6-6 6 6 0 0 1-6 6zm0-42a6 6 0 1 1 6-6 6 6 0 0 1-6 6zm36 84a6 6 0 1 1 6-6 6 6 0 0 1-6 6zm0-42a6 6 0 1 1 6-6 6 6 0 0 1-6 6zm0-42a6 6 0 1 1 6-6 6 6 0 0 1-6 6zm36 84a6 6 0 1 1 6-6 6 6 0 0 1-6 6zm0-42a6 6 0 1 1 6-6 6 6 0 0 1-6 6zm0-42a6 6 0 1 1 6-6 6 6 0 0 1-6 6z" fill="#ff92b6"></path></svg></svg> <!----></g></g> <g transform="translate(67,5.488122940063477)"><g data-gra="path-name" fill-rule="" class="tp-name iconsvg-namesvg" transform="translate(0,0)"><g transform="scale(1)"><g><path d="M3.07-26.53L35.3-26.53 35.3-24.68Q35.3-24.46 35.13-24.29 34.96-24.12 34.74-24.12L34.74-24.12 18.46-24.12Q17.28-19.31 13.58-14.76L13.58-14.76 32.89-14.76 32.89-0.92Q32.89 2.96 29.01 2.96L29.01 2.96 8.88 2.96 8.88-9.95Q6.99-8.36 5.12-7.18 3.26-5.99 1.7-5.33L1.7-5.33 1.7-7.73Q6.33-11.14 9.6-15.28 12.88-19.43 14.28-24.12L14.28-24.12 3.07-24.12 3.07-26.53ZM27.53 0.55Q28.82 0.55 28.82-0.74L28.82-0.74 28.82-12.36 12.95-12.36 12.95 0.55 27.53 0.55ZM44.03-19.2Q44.03-18.98 43.86-18.81 43.7-18.65 43.48-18.65L43.48-18.65 39.96-18.65 39.96-25.86 54.43-25.86Q53.24-27.79 51.43-29.79L51.43-29.79 55.87-29.79Q57.09-28.23 58.13-25.86L58.13-25.86 71.41-25.86 71.41-19.2Q71.41-18.98 71.24-18.81 71.08-18.65 70.85-18.65L70.85-18.65 67.34-18.65 67.34-23.46 44.03-23.46 44.03-19.2ZM63.23-10.8Q64.19-8.18 66.93-5.29 69.67-2.4 72.3-0.74L72.3-0.74 72.3 1.66Q68.49 0.07 65.31-2.4 62.12-4.88 59.94-9.14L59.94-9.14 59.09-8.77Q59.16-8.03 59.16-7.62L59.16-7.62 59.16-0.33Q59.16 3.37 55.46 3.37L55.46 3.37 48.25 3.37 48.25 0.96 53.54 0.96Q55.09 0.96 55.09-0.59L55.09-0.59 55.09-3.96Q52.58-2.15 47.64-0.31 42.7 1.52 38.7 2.15L38.7 2.15 38.7-0.26Q41.18-0.89 44.4-2.16 47.62-3.44 50.54-5.09 53.47-6.73 54.98-8.44L54.98-8.44Q54.95-8.73 54.8-9.58L54.8-9.58Q52.76-7.81 48.25-6.07 43.73-4.33 40.11-3.66L40.11-3.66 40.11-6.07Q43.66-7.14 47.51-9.05 51.36-10.95 53.54-13.1L53.54-13.1Q53.39-13.47 53.13-13.84L53.13-13.84Q50.47-12.25 47.29-11.17 44.1-10.1 40.11-9.06L40.11-9.06 40.11-11.47Q41.92-11.8 44.36-12.76 46.8-13.73 48.97-15.02 51.13-16.32 52.21-17.65L52.21-17.65 44.29-17.65 44.29-20.05 66.82-20.05 66.82-18.2Q66.82-17.98 66.66-17.82 66.49-17.65 66.27-17.65L66.27-17.65 57.5-17.65Q56.83-16.72 55.98-15.91L55.98-15.91Q57.83-13.95 58.64-11.1L58.64-11.1Q60.9-12.32 62.83-13.76 64.75-15.21 65.34-16.5L65.34-16.5 70-16.5Q68.78-13.8 63.23-10.8L63.23-10.8ZM97.16-25.6L109.37-25.6 109.37-23.75Q109.37-23.53 109.21-23.37 109.04-23.2 108.82-23.2L108.82-23.2 83.03-23.2 83.03-15.54Q83.03-9.62 82.23-5.77 81.44-1.92 79.86 0.31 78.29 2.55 75.78 3.77L75.78 3.77 75.78 1.37Q77.74-0.37 78.35-4.57 78.96-8.77 78.96-15.61L78.96-15.61 78.96-25.6 93.46-25.6Q92.09-27.71 90.24-29.75L90.24-29.75 94.68-29.75Q95.83-28.27 97.16-25.6L97.16-25.6ZM97.68-10.91L97.68-0.55 109.22-0.55 109.22 1.29Q109.22 1.52 109.06 1.68 108.89 1.85 108.67 1.85L108.67 1.85 81.58 1.85 81.58-0.55 93.61-0.55 93.61-10.91 84.47-10.91 84.47-13.32 93.61-13.32 93.61-21.53 97.68-21.53 97.68-13.32 107.11-13.32 107.11-11.47Q107.11-11.25 106.95-11.08 106.78-10.91 106.56-10.91L106.56-10.91 97.68-10.91ZM119.21 0.26L145.3 0.26 145.3 2.11Q145.3 2.33 145.13 2.5 144.97 2.66 144.74 2.66L144.74 2.66 115.14 2.66 115.14-28.38 144.56-28.38 144.56-26.53Q144.56-26.31 144.39-26.14 144.23-25.97 144-25.97L144-25.97 119.21-25.97 119.21 0.26ZM120.73-3.81Q122.4-4.74 124.69-6.6 126.98-8.47 129.35-10.91L129.35-10.91Q123.65-16.8 121.17-22.98L121.17-22.98 125.25-22.98Q127.5-18.28 131.68-13.47L131.68-13.47Q135.75-18.31 138.05-22.98L138.05-22.98 142.12-22.98Q139.49-16.69 134.01-10.91L134.01-10.91Q136.38-8.47 138.75-6.55 141.12-4.63 142.78-3.7L142.78-3.7 142.78-1.11Q140.49-2.07 137.53-4.05 134.57-6.03 131.68-8.66L131.68-8.66Q128.83-6.07 125.95-4.13 123.06-2.18 120.73-1.22L120.73-1.22 120.73-3.81ZM170.5-17.28Q176.86-14.95 183.3-14.32L183.3-14.32 183.3-11.91Q173.97-12.65 166.5-15.5L166.5-15.5Q159.06-12.65 149.7-11.91L149.7-11.91 149.7-14.32Q156.18-14.95 162.47-17.32L162.47-17.32Q159.54-18.8 157.25-20.65L157.25-20.65Q154.73-18.87 151.48-17.8L151.48-17.8 151.48-20.57Q154.33-21.98 156.57-24.59 158.8-27.2 159.47-29.79L159.47-29.79 163.91-29.79Q163.43-28.01 162.58-26.45L162.58-26.45 178.97-26.45 178.97-24.05Q177.82-22.31 175.66-20.55 173.49-18.8 170.5-17.28L170.5-17.28ZM160.1-23.05Q162.1-21.05 166.43-18.98L166.43-18.98Q169.02-20.24 170.88-21.55 172.75-22.87 173.6-24.05L173.6-24.05 160.99-24.05 160.1-23.05ZM180.86-7.77L168.79-7.77 168.79-0.26Q168.79 3.63 164.91 3.63L164.91 3.63 158.62 3.63 158.62 1.22 163.43 1.22Q164.72 1.22 164.72-0.07L164.72-0.07 164.72-7.77 151.37-7.77 151.37-10.17 164.72-10.17 164.72-13.58 168.79-13.58 168.79-10.17 181.41-10.17 181.41-8.32Q181.41-8.1 181.24-7.94 181.08-7.77 180.86-7.77L180.86-7.77ZM161.58-6.66Q160.95-4.66 159.01-2.68 157.06-0.7 154.64 0.76 152.22 2.22 150.29 2.7L150.29 2.7 150.29 0.3Q152.29-0.7 154.18-2.57 156.07-4.44 157.14-6.66L157.14-6.66 161.58-6.66ZM175.49-6.66Q176.49-4.51 178.49-2.63 180.49-0.74 182.34 0.3L182.34 0.3 182.34 2.7Q180.56 2.22 178.14 0.76 175.71-0.7 173.7-2.68 171.68-4.66 171.05-6.66L171.05-6.66 175.49-6.66Z" transform="translate(-1.7000000476837158, 29.790000915527344)"></path></g> <!----> <!----> <!----> <!----> <!----> <!----> <!----></g></g> <g data-gra="path-slogan" fill-rule="" class="tp-slogan iconsvg-slogansvg" fill="#333" transform="translate(5,47.560001373291016)"><rect x="0" height="1" y="3.2300000190734863" width="12.2540283203125"></rect> <rect height="1" y="3.2300000190734863" width="12.2540283203125" x="159.34597778320312"></rect> <g transform="translate(15.2540283203125,0)"><g transform="scale(1)"><path d="M5.98-5.08L5.98-5.08L5.08-5.08Q5-6.45 3.28-6.52L3.28-6.52Q1.68-6.48 1.68-5.27L1.68-5.27Q1.68-4.49 2.54-4.38L2.54-4.38L4.57-3.91Q6.17-3.52 6.17-1.95L6.17-1.95Q6.13 0.04 3.36 0.12L3.36 0.12Q1.84 0.12 1.21-0.51L1.21-0.51Q0.43-1.09 0.47-2.30L0.47-2.30L1.41-2.30Q1.45-0.66 3.36-0.63L3.36-0.63Q5.23-0.66 5.27-1.84L5.27-1.84Q5.43-2.81 3.71-3.13L3.71-3.13L2.23-3.44Q0.70-3.87 0.70-5.16L0.70-5.16Q0.82-7.27 3.20-7.34L3.20-7.34Q5.90-7.34 5.98-5.08ZM9.36-4.22L13.11-4.22L13.11-7.15L14.09-7.15L14.09 0L13.11 0L13.11-3.32L9.36-3.32L9.36 0L8.38 0L8.38-7.15L9.36-7.15L9.36-4.22ZM16.73-7.15L17.70-7.15L17.70 0L16.73 0L16.73-7.15ZM19.76-1.60L19.76-2.30L20.66-2.30L20.66-1.80Q20.66-0.63 21.75-0.63L21.75-0.63Q22.88-0.63 22.88-1.88L22.88-1.88L22.88-7.15L23.86-7.15L23.86-1.91Q23.82 0.08 21.79 0.12L21.79 0.12Q19.88 0.08 19.76-1.60L19.76-1.60ZM26.50-7.15L27.48-7.15L27.48 0L26.50 0L26.50-7.15ZM34.84 0L34.14-2.07L31.25-2.07L30.51 0L29.53 0L32.23-7.15L33.32-7.15L35.90 0L34.84 0ZM32.70-6.09L31.56-2.93L33.79-2.93L32.73-6.09L32.70-6.09ZM38.46-0.86L42.88-0.86L42.88 0L37.25 0L37.25-0.78L41.63-6.33L37.56-6.33L37.56-7.15L42.88-7.15L42.88-6.33L38.46-0.86ZM45.79-4.22L49.54-4.22L49.54-7.15L50.52-7.15L50.52 0L49.54 0L49.54-3.32L45.79-3.32L45.79 0L44.81 0L44.81-7.15L45.79-7.15L45.79-4.22ZM57.73-2.66L57.73-7.15L58.70-7.15L58.70-2.54Q58.59 0.04 55.77 0.12L55.77 0.12Q53.16 0.04 53.04-2.38L53.04-2.38L53.04-7.15L54.02-7.15L54.02-2.66Q54.05-0.70 55.81-0.66L55.81-0.66Q57.73-0.70 57.73-2.66L57.73-2.66ZM65.91 0L65.21-2.07L62.32-2.07L61.58 0L60.60 0L63.30-7.15L64.39-7.15L66.97 0L65.91 0ZM63.77-6.09L62.63-2.93L64.86-2.93L63.80-6.09L63.77-6.09ZM70-7.15L73.59-1.37L73.59-7.15L74.53-7.15L74.53 0L73.44 0L69.80-5.78L69.77-5.78L69.77 0L68.83 0L68.83-7.15L70-7.15ZM82.37-3.01L80.18-3.01L80.18-3.83L83.30-3.83L83.30 0L82.68 0L82.45-0.90Q81.63 0.08 80.10 0.12L80.10 0.12Q78.66 0.12 77.88-0.63L77.88-0.63Q76.70-1.72 76.74-3.63L76.74-3.63Q77.02-7.19 80.14-7.34L80.14-7.34Q82.80-7.19 83.19-5L83.19-5L82.25-5Q81.86-6.48 80.10-6.52L80.10-6.52Q77.88-6.37 77.76-3.59L77.76-3.59Q77.76-0.63 80.14-0.63L80.14-0.63Q81-0.63 81.63-1.09L81.63-1.09Q82.41-1.72 82.37-3.01L82.37-3.01ZM92.49 0L89.60 0L89.60-7.15L92.53-7.15Q95.42-6.99 95.54-3.67L95.54-3.67Q95.38-0.08 92.49 0L92.49 0ZM92.38-6.37L90.58-6.37L90.58-0.82L92.45-0.82Q94.48-0.94 94.56-3.59L94.56-3.59Q94.52-6.29 92.38-6.37L92.38-6.37ZM97.91-7.15L98.88-7.15L98.88 0L97.91 0L97.91-7.15ZM106.76-5.08L106.76-5.08L105.86-5.08Q105.78-6.45 104.06-6.52L104.06-6.52Q102.46-6.48 102.46-5.27L102.46-5.27Q102.46-4.49 103.32-4.38L103.32-4.38L105.35-3.91Q106.95-3.52 106.95-1.95L106.95-1.95Q106.91 0.04 104.14 0.12L104.14 0.12Q102.62 0.12 101.99-0.51L101.99-0.51Q101.21-1.09 101.25-2.30L101.25-2.30L102.19-2.30Q102.23-0.66 104.14-0.63L104.14-0.63Q106.02-0.66 106.05-1.84L106.05-1.84Q106.21-2.81 104.49-3.13L104.49-3.13L103.01-3.44Q101.48-3.87 101.48-5.16L101.48-5.16Q101.60-7.27 103.98-7.34L103.98-7.34Q106.68-7.34 106.76-5.08ZM111-6.33L108.58-6.33L108.58-7.15L114.36-7.15L114.36-6.33L111.94-6.33L111.94 0L111 0L111-6.33ZM119.66-3.09L117.31-3.09L117.31 0L116.34 0L116.34-7.15L119.66-7.15Q122.04-7.15 122.04-5.23L122.04-5.23Q122.04-4.06 121.02-3.52L121.02-3.52Q121.88-3.28 121.88-2.15L121.88-2.15L121.96-0.86Q121.92-0.31 122.31-0.16L122.31-0.16L122.31 0L121.10 0Q120.98-0.51 120.95-1.80L120.95-1.80Q120.98-3.09 119.66-3.09L119.66-3.09ZM119.73-6.37L117.31-6.37L117.31-3.91L119.58-3.91Q121.02-3.91 121.02-5.16L121.02-5.16Q121.02-6.37 119.73-6.37L119.73-6.37ZM124.56-7.15L125.54-7.15L125.54 0L124.56 0L124.56-7.15ZM134.16-5.04L134.16-5.04L133.22-5.04Q132.87-6.48 131.23-6.52L131.23-6.52Q128.96-6.41 128.88-3.63L128.88-3.63Q128.88-0.66 131.27-0.66L131.27-0.66Q132.91-0.70 133.30-2.66L133.30-2.66L134.23-2.66Q133.80 0.04 131.07 0.12L131.07 0.12Q127.95 0 127.87-3.59L127.87-3.59Q128.02-7.19 131.23-7.34L131.23-7.34Q133.77-7.27 134.16-5.04ZM138.20-6.33L135.78-6.33L135.78-7.15L141.56-7.15L141.56-6.33L139.14-6.33L139.14 0L138.20 0L138.20-6.33Z" transform="translate(-0.466889880952381, 7.34375)"></path></g></g></g></g></g><defs v-gra="od"></defs></svg>